<svg width="60" height="120" viewBox="0 0 60 120" fill="none" xmlns="http://www.w3.org/2000/svg">
<mask id="path-1-inside-1_5323_4" fill="white">
<path d="M60 0C52.1207 0 44.3185 1.55195 37.039 4.56723C29.7595 7.58251 23.1451 12.0021 17.5736 17.5736C12.0021 23.1451 7.58251 29.7595 4.56723 37.039C1.55195 44.3185 -3.44416e-07 52.1207 0 60C3.44416e-07 67.8793 1.55195 75.6815 4.56723 82.961C7.58251 90.2405 12.0021 96.8549 17.5736 102.426C23.1451 107.998 29.7595 112.417 37.039 115.433C44.3185 118.448 52.1207 120 60 120L60 60L60 0Z"/>
</mask>
<path d="M60 0C52.1207 0 44.3185 1.55195 37.039 4.56723C29.7595 7.58251 23.1451 12.0021 17.5736 17.5736C12.0021 23.1451 7.58251 29.7595 4.56723 37.039C1.55195 44.3185 -3.44416e-07 52.1207 0 60C3.44416e-07 67.8793 1.55195 75.6815 4.56723 82.961C7.58251 90.2405 12.0021 96.8549 17.5736 102.426C23.1451 107.998 29.7595 112.417 37.039 115.433C44.3185 118.448 52.1207 120 60 120L60 60L60 0Z" fill="#F5F9FF" stroke="#E6F0FE" stroke-width="2" mask="url(#path-1-inside-1_5323_4)"/>
</svg>
