<svg width="100" height="262" viewBox="0 0 100 262" fill="none" xmlns="http://www.w3.org/2000/svg">
<circle cx="50" cy="212" r="49.5" stroke="#CCE0FF"/>
<path d="M31.859 220.27C30.941 220.27 30.113 220.114 29.375 219.802C28.643 219.49 28.037 219.046 27.557 218.47C27.083 217.888 26.774 217.201 26.63 216.409L28.286 216.148C28.496 216.964 28.931 217.603 29.591 218.065C30.257 218.521 31.04 218.749 31.94 218.749C32.522 218.749 33.047 218.659 33.515 218.479C33.989 218.293 34.364 218.029 34.64 217.687C34.916 217.345 35.054 216.94 35.054 216.472C35.054 216.184 35.003 215.938 34.901 215.734C34.805 215.524 34.67 215.347 34.496 215.203C34.328 215.053 34.136 214.927 33.92 214.825C33.704 214.723 33.479 214.639 33.245 214.573L29.942 213.592C29.582 213.484 29.234 213.349 28.898 213.187C28.562 213.019 28.262 212.812 27.998 212.566C27.734 212.314 27.524 212.014 27.368 211.666C27.212 211.312 27.134 210.895 27.134 210.415C27.134 209.647 27.332 208.993 27.728 208.453C28.13 207.907 28.673 207.49 29.357 207.202C30.041 206.914 30.812 206.773 31.67 206.779C32.54 206.785 33.317 206.941 34.001 207.247C34.691 207.547 35.261 207.979 35.711 208.543C36.167 209.107 36.473 209.782 36.629 210.568L34.928 210.865C34.838 210.337 34.637 209.884 34.325 209.506C34.019 209.122 33.635 208.828 33.173 208.624C32.711 208.414 32.204 208.306 31.652 208.3C31.124 208.294 30.647 208.378 30.221 208.552C29.795 208.726 29.456 208.969 29.204 209.281C28.952 209.587 28.826 209.941 28.826 210.343C28.826 210.739 28.94 211.06 29.168 211.306C29.396 211.546 29.675 211.738 30.005 211.882C30.341 212.02 30.668 212.134 30.986 212.224L33.452 212.935C33.734 213.013 34.058 213.121 34.424 213.259C34.796 213.397 35.156 213.592 35.504 213.844C35.852 214.09 36.14 214.42 36.368 214.834C36.596 215.242 36.71 215.758 36.71 216.382C36.71 217.006 36.584 217.561 36.332 218.047C36.086 218.533 35.741 218.941 35.297 219.271C34.853 219.595 34.337 219.841 33.749 220.009C33.161 220.183 32.531 220.27 31.859 220.27ZM43.0529 220.27C42.0689 220.27 41.2319 220.051 40.5419 219.613C39.8579 219.169 39.3359 218.56 38.9759 217.786C38.6159 217.012 38.4299 216.13 38.4179 215.14C38.4299 214.126 38.6189 213.235 38.9849 212.467C39.3569 211.693 39.8879 211.09 40.5779 210.658C41.2679 210.226 42.0989 210.01 43.0709 210.01C44.0969 210.01 44.9789 210.262 45.7169 210.766C46.4609 211.27 46.9589 211.96 47.2109 212.836L45.6269 213.313C45.4229 212.749 45.0899 212.311 44.6279 211.999C44.1719 211.687 43.6469 211.531 43.0529 211.531C42.3869 211.531 41.8379 211.687 41.4059 211.999C40.9739 212.305 40.6529 212.731 40.4429 213.277C40.2329 213.817 40.1249 214.438 40.1189 215.14C40.1309 216.22 40.3799 217.093 40.8659 217.759C41.3579 218.419 42.0869 218.749 43.0529 218.749C43.6889 218.749 44.2169 218.605 44.6369 218.317C45.0569 218.023 45.3749 217.6 45.5909 217.048L47.2109 217.471C46.8749 218.377 46.3499 219.07 45.6359 219.55C44.9219 220.03 44.0609 220.27 43.0529 220.27ZM49.4077 220V210.28H50.8387V212.629L50.6047 212.323C50.7187 212.023 50.8657 211.747 51.0457 211.495C51.2317 211.243 51.4387 211.036 51.6667 210.874C51.9187 210.67 52.2037 210.514 52.5217 210.406C52.8397 210.298 53.1637 210.235 53.4937 210.217C53.8237 210.193 54.1327 210.214 54.4207 210.28V211.783C54.0847 211.693 53.7157 211.669 53.3137 211.711C52.9117 211.753 52.5397 211.9 52.1977 212.152C51.8857 212.374 51.6427 212.644 51.4687 212.962C51.3007 213.28 51.1837 213.625 51.1177 213.997C51.0517 214.363 51.0187 214.738 51.0187 215.122V220H49.4077ZM60.4468 220.27C59.4808 220.27 58.6468 220.051 57.9448 219.613C57.2488 219.175 56.7118 218.569 56.3338 217.795C55.9558 217.021 55.7668 216.133 55.7668 215.131C55.7668 214.111 55.9588 213.217 56.3428 212.449C56.7268 211.681 57.2698 211.084 57.9718 210.658C58.6738 210.226 59.4988 210.01 60.4468 210.01C61.4188 210.01 62.2558 210.229 62.9578 210.667C63.6598 211.099 64.1968 211.702 64.5688 212.476C64.9468 213.244 65.1358 214.129 65.1358 215.131C65.1358 216.145 64.9468 217.039 64.5688 217.813C64.1908 218.581 63.6508 219.184 62.9488 219.622C62.2468 220.054 61.4128 220.27 60.4468 220.27ZM60.4468 218.749C61.4548 218.749 62.2048 218.413 62.6968 217.741C63.1888 217.069 63.4348 216.199 63.4348 215.131C63.4348 214.033 63.1858 213.16 62.6878 212.512C62.1898 211.858 61.4428 211.531 60.4468 211.531C59.7688 211.531 59.2108 211.684 58.7728 211.99C58.3348 212.296 58.0078 212.719 57.7918 213.259C57.5758 213.799 57.4678 214.423 57.4678 215.131C57.4678 216.223 57.7198 217.099 58.2238 217.759C58.7278 218.419 59.4688 218.749 60.4468 218.749ZM67.6573 220V206.77H69.2593V220H67.6573ZM72.4998 220V206.77H74.1018V220H72.4998Z" fill="#A5A5AB"/>
<circle cx="49.5" cy="6.5" r="6.5" fill="#CCE0FF"/>
<line x1="49.5" y1="12.9967" x2="50.5" y2="162.997" stroke="#CCE0FF"/>
</svg>
