<svg width="140" height="140" viewBox="0 0 140 140" fill="none" xmlns="http://www.w3.org/2000/svg">
<path d="M137.322 66.2967L117.237 60.5446C108.192 57.989 99.9524 53.15 93.3074 46.4906C86.6623 39.8311 81.8338 31.5741 79.2837 22.5095L73.544 2.38073C73.2554 1.67649 72.7643 1.07415 72.1333 0.65024C71.5022 0.226333 70.7597 0 70 0C69.2403 0 68.4978 0.226333 67.8667 0.65024C67.2357 1.07415 66.7446 1.67649 66.456 2.38073L60.7163 22.5095C58.1662 31.5741 53.3377 39.8311 46.6926 46.4906C40.0476 53.15 31.8084 57.989 22.7634 60.5446L2.6781 66.2967C1.9069 66.5161 1.22814 66.9816 0.744817 67.6225C0.261497 68.2635 0 69.045 0 69.8484C0 70.6518 0.261497 71.4333 0.744817 72.0743C1.22814 72.7153 1.9069 73.1808 2.6781 73.4001L22.7634 79.1523C31.8084 81.7078 40.0476 86.5468 46.6926 93.2063C53.3377 99.8657 58.1662 108.123 60.7163 117.187L66.456 137.316C66.6749 138.089 67.1393 138.769 67.7789 139.254C68.4185 139.738 69.1983 140 70 140C70.8017 140 71.5815 139.738 72.2211 139.254C72.8607 138.769 73.3251 138.089 73.544 137.316L79.2837 117.187C81.8338 108.123 86.6623 99.8657 93.3074 93.2063C99.9524 86.5468 108.192 81.7078 117.237 79.1523L137.322 73.4001C138.093 73.1808 138.772 72.7153 139.255 72.0743C139.738 71.4333 140 70.6518 140 69.8484C140 69.045 139.738 68.2635 139.255 67.6225C138.772 66.9816 138.093 66.5161 137.322 66.2967Z" fill="white"/>
</svg>
