<svg width="24" height="24" viewBox="0 0 24 24" fill="none" xmlns="http://www.w3.org/2000/svg">
<path d="M2.68503 12.525L8.26503 15.375C8.43003 15.4575 8.79003 15.66 8.99253 15.33C9.18003 15.0225 8.86503 14.775 8.71503 14.6625L2.22003 9.68999C1.74753 9.31499 1.64253 8.58749 2.00253 8.09249C2.36253 7.57499 3.11253 7.42498 3.62253 7.77748L10.2225 12.51C10.3425 12.6 10.6725 12.84 10.9125 12.5625C11.1525 12.3 10.89 12 10.785 11.8875L4.65753 5.42248C4.21503 4.93498 4.24503 4.12498 4.83753 3.57749C5.31003 3.14249 6.14253 3.12749 6.59253 3.59248L12.615 9.86248C12.705 9.95249 12.9825 10.2375 13.2675 10.0275C13.56 9.80249 13.35 9.47249 13.2975 9.34499L9.55503 3.13498C9.30003 2.73748 9.29253 1.91998 9.98253 1.50748C10.695 1.08748 11.3775 1.50748 11.64 1.94998L15.8025 8.63999C16.395 9.62999 17.325 10.4625 18.15 10.8525C18.7875 11.1525 19.2825 10.77 19.365 10.1025C19.4925 9.06749 19.695 7.78498 20.055 6.70498C20.43 5.57248 21.75 5.00998 22.875 5.57998L22.4925 7.08748C22.11 8.61748 22.065 10.2225 22.3275 11.7825C22.5525 13.0875 22.7775 14.7675 22.7475 16.26C22.71 18.51 21.195 19.4925 19.8375 20.715C13.98 26.0325 9.72003 18.8025 7.64253 17.775L1.60503 14.4225C1.09503 14.13 0.982529 13.4475 1.28253 12.9525C1.57503 12.4725 2.17503 12.2625 2.68503 12.525Z" fill="#FEC476"/>
<path d="M21.12 5.54998C21.3 5.58748 21.4725 5.63998 21.645 5.72248L21.2625 7.22998C20.88 8.75998 20.835 10.365 21.0975 11.925C21.3225 13.23 21.5475 14.91 21.5175 16.4025C21.48 18.6525 19.965 19.635 18.6075 20.8575C17.4975 21.8625 16.4475 22.4175 15.4575 22.65C16.7925 22.6725 18.255 22.155 19.83 20.7225C21.1875 19.5 22.695 18.5175 22.74 16.2675C22.77 14.7675 22.545 13.0875 22.32 11.79C22.05 10.23 22.1025 8.62498 22.485 7.09498L22.8675 5.58748C22.29 5.29498 21.6525 5.30998 21.12 5.54998Z" fill="#FE9711"/>
<path d="M21.1049 11.1825C21.33 12.4875 21.555 14.1675 21.525 15.66C21.4875 17.91 19.9725 18.8925 18.615 20.115C16.275 22.2375 14.19 22.3575 12.3975 21.675C14.4375 22.9125 16.9425 23.355 19.8375 20.7225C21.195 19.5 22.7025 18.5175 22.7475 16.2675C22.7775 14.7675 22.5525 13.0875 22.3275 11.79C22.065 10.23 20.8349 9.62249 21.1049 11.1825ZM5.36245 3.72748L12.0375 10.605C12.1274 10.695 12.405 10.98 12.69 10.77C12.9825 10.545 12.7725 10.215 12.7199 10.0875L12.4275 9.59999L6.59245 3.59999C6.17995 3.17249 5.45995 3.14999 4.97995 3.47249C5.12245 3.53249 5.24995 3.61498 5.36245 3.72748ZM2.33245 7.95749L9.65245 13.2C9.78745 13.2975 10.155 13.56 10.4175 13.2525C10.65 13.005 10.4625 12.72 10.335 12.57L3.68995 7.80749C3.24745 7.49999 2.61745 7.54499 2.18245 7.87499C2.23495 7.90499 2.28745 7.92748 2.33245 7.95749ZM10.41 2.08498L14.5725 8.77499C15.165 9.76499 16.095 10.5975 16.92 10.9875C17.3625 11.1975 17.7375 11.0625 17.955 10.74C17.1825 10.32 16.3575 9.55499 15.8025 8.63999L11.64 1.94998C11.3775 1.50748 10.695 1.08748 9.98245 1.50748C9.93745 1.52998 9.90745 1.55998 9.86995 1.58998C10.1025 1.71748 10.2975 1.89748 10.41 2.08498ZM7.84495 16.0725C8.03245 16.17 8.45995 16.4025 8.69245 16.02C8.78245 15.87 8.75995 15.7425 8.70745 15.63L2.75245 12.585C2.27995 12.345 1.75495 12.45 1.38745 12.7725L7.84495 16.0725Z" fill="#FE9711"/>
<path d="M15.5625 23.0325C12.8625 23.0325 10.665 20.9475 9.13498 19.5C8.47499 18.87 7.89748 18.33 7.47748 18.12L1.42498 14.76C1.10998 14.58 0.884985 14.2875 0.794985 13.9275C0.689985 13.5375 0.757485 13.1175 0.959985 12.765C1.35748 12.09 2.16748 11.8425 2.84998 12.1875L8.42998 15.0375C8.48998 15.0675 8.63248 15.135 8.67748 15.135C8.65498 15.1125 8.59499 15.0525 8.48248 14.9625L1.98748 9.98999C1.68085 9.73966 1.47972 9.38304 1.42413 8.99112C1.36854 8.5992 1.46256 8.20072 1.68748 7.87499C1.91998 7.54499 2.28748 7.30499 2.70748 7.23749C3.11248 7.16249 3.50998 7.25249 3.82498 7.47749L10.4325 12.21C10.5675 12.315 10.62 12.3225 10.635 12.3225C10.6275 12.315 10.6125 12.255 10.515 12.15L4.37998 5.68499C3.77998 5.00999 3.86248 3.96749 4.57498 3.30749C5.21248 2.72999 6.27748 2.74499 6.85499 3.33749L12.8775 9.60749C12.9825 9.71249 13.0275 9.72749 13.05 9.73499C13.0425 9.69749 12.99 9.59249 12.975 9.55499L9.22499 3.33749C9.02248 3.02999 8.95498 2.57999 9.05248 2.17499C9.14998 1.76249 9.40498 1.42499 9.77998 1.19999C10.6275 0.697492 11.55 1.09499 11.955 1.76999L16.11 8.45999C16.635 9.33749 17.4975 10.1475 18.3 10.5375C18.4125 10.59 18.585 10.635 18.72 10.56C18.855 10.485 18.9525 10.3125 18.9825 10.0725C19.1025 9.14249 19.2975 7.76249 19.6875 6.60749C19.8975 5.96249 20.385 5.44499 21.0225 5.18249C21.6675 4.91999 22.4025 4.94999 23.04 5.26499C23.1975 5.34749 23.28 5.51999 23.235 5.69249L22.8525 7.19999C22.485 8.66999 22.4325 10.2 22.695 11.7375C23.0025 13.5 23.145 15.03 23.1225 16.29C23.085 18.4125 21.8325 19.5 20.6175 20.5575C20.445 20.7075 20.265 20.865 20.0925 21.0225C18.4725 22.4775 16.95 23.0325 15.5625 23.0325ZM2.21248 12.7875C1.97248 12.7875 1.74748 12.915 1.61248 13.1475V13.155C1.50748 13.3275 1.47748 13.545 1.52248 13.74C1.55248 13.8525 1.62748 14.01 1.79248 14.1075L7.82248 17.46C8.33249 17.7075 8.93998 18.285 9.64498 18.96C12.0375 21.225 15.3075 24.33 19.5825 20.4525C19.7625 20.2875 19.9425 20.1375 20.1225 19.98C21.3075 18.945 22.335 18.06 22.3725 16.2675C22.395 15.06 22.2525 13.575 21.96 11.8575C21.675 10.215 21.735 8.57999 22.125 7.00499L22.425 5.81249C22.0575 5.69999 21.6675 5.71499 21.3075 5.86499C20.8725 6.04499 20.5425 6.39749 20.4 6.83249C20.0325 7.93499 19.8375 9.25499 19.725 10.155C19.665 10.6275 19.4325 11.01 19.0875 11.205C18.765 11.385 18.3675 11.385 17.985 11.205C17.04 10.755 16.08 9.84749 15.48 8.84249L11.3175 2.15249C11.1975 1.95749 10.74 1.49249 10.17 1.83749C9.98588 1.9437 9.85064 2.11772 9.79317 2.32235C9.73571 2.52698 9.76059 2.74597 9.86248 2.93249L13.6125 9.14999C13.9425 9.80249 13.725 10.14 13.4925 10.32C13.29 10.47 12.8775 10.65 12.3525 10.1325L6.32248 3.85499C6.02248 3.55499 5.42248 3.55499 5.09248 3.85499C4.63498 4.28249 4.64998 4.85999 4.93498 5.17499L11.055 11.625C11.5125 12.105 11.4225 12.555 11.1825 12.8175C11.0775 12.9375 10.665 13.32 9.98998 12.81L3.38998 8.08499C3.23998 7.97999 3.04498 7.93499 2.83498 7.97249C2.61748 8.00999 2.42248 8.12999 2.30248 8.30249C2.06248 8.63999 2.12998 9.14249 2.44498 9.39749L8.93248 14.3625C9.53249 14.835 9.46498 15.255 9.29998 15.5175C9.12748 15.8025 8.77498 16.065 8.09248 15.705L2.50498 12.8475C2.41498 12.81 2.31748 12.7875 2.21248 12.7875ZM5.90248 21.645C4.82116 21.6428 3.76159 21.341 2.84145 20.773C1.9213 20.205 1.17658 19.3931 0.689985 18.4275C0.647255 18.3378 0.641385 18.235 0.673637 18.141C0.705888 18.0471 0.773689 17.9695 0.862485 17.925C1.04998 17.835 1.27498 17.91 1.36498 18.09C1.80089 18.9526 2.47296 19.6735 3.30287 20.1688C4.13278 20.6641 5.08636 20.9133 6.05248 20.8875C6.26248 20.895 6.43498 21.045 6.43498 21.255C6.43701 21.3045 6.429 21.3539 6.41144 21.4002C6.39388 21.4466 6.36713 21.4889 6.3328 21.5246C6.29847 21.5603 6.25727 21.5888 6.21167 21.6082C6.16608 21.6276 6.11703 21.6375 6.06748 21.6375C6.01499 21.645 5.96248 21.645 5.90248 21.645ZM5.86498 19.785H5.82748C5.1177 19.7154 4.43549 19.4742 3.83968 19.0823C3.24387 18.6903 2.75234 18.1593 2.40748 17.535C2.38342 17.4918 2.36821 17.4442 2.36273 17.395C2.35726 17.3458 2.36163 17.296 2.37559 17.2486C2.38955 17.2011 2.41283 17.1569 2.44406 17.1185C2.47529 17.0801 2.51384 17.0483 2.55748 17.025C2.73748 16.9275 2.96998 16.9875 3.06748 17.175C3.64498 18.225 4.70998 18.9225 5.90248 19.0425C6.10498 19.065 6.26248 19.245 6.23998 19.455C6.21748 19.6425 6.05248 19.785 5.86498 19.785Z" fill="#B0B0B0"/>
<path d="M18.4724 6.13499C18.2849 6.13499 18.1199 5.99249 18.0974 5.79749C17.99 4.83727 17.6124 3.92724 17.0083 3.17315C16.4042 2.41906 15.5986 1.85187 14.6849 1.53749C14.6387 1.52173 14.5959 1.49701 14.5592 1.46473C14.5224 1.43246 14.4924 1.39327 14.4708 1.34939C14.4492 1.30551 14.4365 1.25782 14.4334 1.20902C14.4302 1.16022 14.4367 1.11128 14.4524 1.06499C14.4682 1.0187 14.4929 0.975963 14.5252 0.939226C14.5575 0.90249 14.5967 0.872469 14.6405 0.85088C14.6844 0.82929 14.7321 0.816554 14.7809 0.813398C14.8297 0.810243 14.8787 0.816729 14.9249 0.832488C17.0549 1.55999 18.5924 3.47999 18.8399 5.72249C18.8624 5.92499 18.7124 6.11249 18.5099 6.13499H18.4724ZM16.6499 6.50999C16.4699 6.50999 16.3049 6.37499 16.2824 6.18749C16.194 5.60257 15.9649 5.04786 15.6148 4.57103C15.2647 4.0942 14.804 3.7095 14.2724 3.44999C14.1829 3.40623 14.1145 3.3287 14.0821 3.23446C14.0498 3.14023 14.0562 3.037 14.0999 2.94749C14.1437 2.85798 14.2212 2.78952 14.3155 2.75717C14.4097 2.72482 14.5129 2.73123 14.6024 2.77499C15.2425 3.08876 15.7972 3.55279 16.219 4.12744C16.6409 4.70208 16.9174 5.37029 17.0249 6.07499C17.0549 6.27749 16.9124 6.47249 16.7099 6.50249C16.6874 6.50249 16.6724 6.50999 16.6499 6.50999Z" fill="#B0B0B0"/>
</svg>
