<svg width="32" height="32" viewBox="0 0 32 32" fill="none" xmlns="http://www.w3.org/2000/svg">
<g clip-path="url(#clip0_3361_162)">
<path d="M19.3402 31.9999C20.4102 31.9999 21.3432 31.0668 21.3432 29.9969V25.319H22.6807C23.4832 25.319 24.0181 24.7839 24.0181 23.9816V10.621H7.98166V23.9817C7.98166 24.7841 8.51665 25.3191 9.31909 25.3191H10.6566V29.997C10.6566 31.0669 11.5895 32 12.6596 32C13.7294 32 14.6624 31.0669 14.6624 29.997V25.3191H17.3374V29.997C17.3372 31.0668 18.2703 31.9999 19.3402 31.9999ZM27.3586 23.9817C28.4285 23.9817 29.3614 23.0488 29.3614 21.9787V12.6231C29.3614 11.5588 28.4286 10.621 27.3586 10.621C26.2885 10.621 25.3556 11.5589 25.3556 12.6231V21.9787C25.3556 23.0486 26.2885 23.9817 27.3586 23.9817ZM4.64123 23.9817C5.71129 23.9817 6.64422 23.0488 6.64422 21.9787V12.6231C6.64422 11.5588 5.71142 10.621 4.64123 10.621C3.5713 10.621 2.63843 11.5589 2.63843 12.6231V21.9787C2.63849 23.0486 3.5713 23.9817 4.64123 23.9817ZM22.413 0.201796C22.1457 -0.0672654 21.7476 -0.0672654 21.4802 0.201796L19.6864 1.9896L19.6037 2.07223C18.5401 1.5396 17.3475 1.2736 16.0195 1.27104C16.013 1.27104 16.0066 1.27085 16.0001 1.27085H15.9999C15.9931 1.27085 15.9869 1.27104 15.9803 1.27104C14.6523 1.2736 13.4598 1.5396 12.3963 2.07223L12.3133 1.9896L10.5195 0.201796C10.252 -0.0672654 9.85409 -0.0672654 9.58671 0.201796C9.31915 0.469358 9.31915 0.866481 9.58671 1.13385L11.3219 2.86935C10.7628 3.24266 10.2558 3.69947 9.8149 4.22197C8.7594 5.47309 8.08609 7.10139 7.99353 8.86564C7.99266 8.88401 7.99084 8.90214 7.99003 8.92051C7.98441 9.04114 7.98163 9.16188 7.98172 9.28264H24.0181C24.0181 9.16145 24.0152 9.0407 24.0098 8.92051C24.0089 8.90214 24.0071 8.88401 24.006 8.86564C23.9137 7.10139 23.2402 5.47303 22.1847 4.22209C21.744 3.69959 21.2368 3.24278 20.6777 2.86947L22.413 1.13398C22.6807 0.866481 22.6807 0.46942 22.413 0.201796ZM12.6571 6.94746C12.1038 6.94746 11.6551 6.4989 11.6551 5.94552C11.6551 5.39215 12.1037 4.94359 12.6571 4.94359C13.2104 4.94359 13.659 5.39215 13.659 5.94552C13.659 6.4989 13.2104 6.94746 12.6571 6.94746ZM19.3427 6.94746C18.7894 6.94746 18.3407 6.4989 18.3407 5.94552C18.3407 5.39215 18.7893 4.94359 19.3427 4.94359C19.896 4.94359 20.3446 5.39215 20.3446 5.94552C20.3446 6.4989 19.896 6.94746 19.3427 6.94746Z" fill="#A6D864"/>
</g>
<defs>
<clipPath id="clip0_3361_162">
<rect width="32" height="32" fill="white"/>
</clipPath>
</defs>
</svg>
