<svg width="78" height="32" viewBox="0 0 78 32" fill="none" xmlns="http://www.w3.org/2000/svg">
<path d="M49.1638 13.5819V25.1854H44.6086V13.5819C44.6086 12.6268 43.8327 11.8509 42.8776 11.8509H41.1482V25.1854H38.8706V7.2959H42.8776C46.3441 7.2959 49.1638 10.1154 49.1638 13.5819Z" fill="#1C9FAD"/>
<path d="M13.4811 25.3054H6.74057C3.02387 25.3054 0 22.2817 0 18.565V14.0369C0 10.3202 3.02387 7.2963 6.74057 7.2963H8.92599V0H13.4811V25.3054ZM6.74057 11.8516C5.53558 11.8516 4.55516 12.8319 4.55516 14.0369V18.5649C4.55516 19.7699 5.53558 20.7503 6.74057 20.7503H8.92599V11.8516H6.74057ZM34.6332 25.2406H28.2804C24.852 25.2406 22.0629 22.4515 22.0629 19.0231C22.0629 15.5947 24.852 12.8056 28.2804 12.8056H29.8941C29.6093 12.2402 29.0232 11.8515 28.3481 11.8515H24.3405V7.2963H28.3481C31.8137 7.2963 34.6332 10.1158 34.6332 13.5814V25.2406ZM28.2804 17.3609C27.3638 17.3609 26.6181 18.1066 26.6181 19.0233C26.6181 19.9399 27.3638 20.6856 28.2804 20.6856H30.078V17.3609H28.2804Z" fill="#2FD498"/>
<path d="M56.6867 31.9999H52.2237V27.4448H56.6867C57.8919 27.4448 58.8723 26.4643 58.8723 25.2592V25.2404H57.1422C53.6767 25.2404 50.8572 22.4209 50.8572 18.9553V13.5814C50.8572 10.1159 53.6767 7.29639 57.1422 7.29639H63.4274V25.2594C63.4273 28.9761 60.4034 31.9999 56.6867 31.9999ZM57.1422 11.8515C56.1884 11.8515 55.4123 12.6276 55.4123 13.5814V18.9556C55.4123 19.9095 56.1884 20.6855 57.1422 20.6855H58.8723V11.8515H57.1422ZM71.4564 25.2405C67.9907 25.2405 65.1712 22.421 65.1712 18.9555V13.5814C65.1712 10.1159 67.9907 7.29639 71.4564 7.29639C74.9219 7.29639 77.7414 10.1159 77.7414 13.5814V18.9556C77.7414 22.4212 74.9219 25.2405 71.4564 25.2405ZM71.4564 11.8515C70.5025 11.8515 69.7263 12.6276 69.7263 13.5814V18.9556C69.7263 19.9095 70.5024 20.6855 71.4564 20.6855C72.4104 20.6855 73.1863 19.9095 73.1863 18.9556V13.5814C73.1863 12.6276 72.4102 11.8515 71.4564 11.8515Z" fill="#1C9FAD"/>
<path d="M13.9562 32H11.5857V27.4448H13.956C15.1612 27.4448 16.1415 26.4644 16.1415 25.2593V7.35172H20.6966V25.2594C20.6968 28.9761 17.6729 32 13.9562 32ZM16.1416 0H20.6968V4.55516H16.1416V0Z" fill="#2FD498"/>
<rect x="36.7449" y="7.28833" width="2.12574" height="17.917" fill="#2FD498"/>
</svg>
