<svg width="41" height="32" viewBox="0 0 41 32" fill="none" xmlns="http://www.w3.org/2000/svg">
<g clip-path="url(#clip0_3361_249)">
<path d="M39.5685 13.3095C38.5822 12.6457 35.9913 12.3626 34.1076 12.8697C34.0063 10.9932 33.0386 9.41169 31.2681 8.03277L30.6132 7.593L30.1764 8.25266C29.3183 9.55531 28.9566 11.2918 29.0842 12.8703C29.1855 13.8428 29.5233 14.9357 30.1764 15.7289C27.7243 17.1513 25.4646 16.8283 15.4558 16.8283H0.00347884C-0.0418098 19.0886 0.321691 23.4357 3.08609 26.9747C3.39119 27.3657 3.72609 27.7441 4.08959 28.1082C6.33733 30.3589 9.73339 32.0095 14.8117 32.0137C22.5584 32.0209 29.1962 27.8328 33.234 17.7079C34.5629 17.7299 38.0698 17.9456 39.786 14.6294C39.8277 14.5734 40.2228 13.7499 40.2228 13.7499L39.5685 13.3101V13.3095ZM10.0879 10.9771H5.74262V15.3225H10.0879V10.9771ZM15.702 10.9771H11.3566V15.3225H15.702V10.9771ZM21.316 10.9771H16.9706V15.3225H21.316V10.9771ZM26.93 10.9771H22.5846V15.3225H26.93V10.9771ZM4.47514 10.9771H0.128619V15.3225H4.47394V10.9771H4.47514ZM10.0891 5.48827H5.74381V9.83359H10.0891V5.48827ZM15.7031 5.48827H11.3578V9.83359H15.7031V5.48827ZM21.3171 5.48827H16.9718V9.83359H21.3171V5.48827ZM21.3154 0H16.97V4.34533H21.3154V0Z" fill="#1D63ED"/>
</g>
<defs>
<clipPath id="clip0_3361_249">
<rect width="40.2235" height="32" fill="white"/>
</clipPath>
</defs>
</svg>
