<svg height="32" overflow="hidden" width="32" xmlns="http://www.w3.org/2000/svg" xmlns:xlink="http://www.w3.org/1999/xlink"><clipPath id="a"><path d="m979 281h95v63h-95z"/></clipPath><g clip-path="url(#a)" transform="translate(-979 -281)"><path d="m.495362 32.6809h15.951238v4.1232h-11.15215v4.9002h10.91535v4.1218h-10.91535v9.3945h-4.799088z" transform="matrix(1 0 0 1.01243 979.012 281)"/><path d="m17.6294 47.0435c0-4.6301 3.2437-8.5497 8.6176-8.5497 5.4071 0 8.6508 3.9196 8.6508 8.5497 0 4.6634-3.2437 8.5829-8.6508 8.5829-5.3739 0-8.6176-3.9239-8.6176-8.5829zm12.8072 0c0-2.5346-1.5193-4.7312-4.1882-4.7312s-4.1521 2.1966-4.1521 4.7312c0 2.5678 1.4861 4.7659 4.1565 4.7659 2.6703 0 4.1838-2.1981 4.1838-4.7659z" transform="matrix(1 0 0 1.01243 979.012 281)"/><path d="m37.0612 38.8997h4.2922v2.2298c1.1553-1.4529 3.1772-2.5996 5.1991-2.5996v4.1882c-.3881-.0886-.7848-.1341-1.1828-.1357-1.4197 0-3.3116.8116-4.0207 1.8587v10.7795h-4.2878z" transform="matrix(1 0 0 1.01243 979.012 281)"/><path d="m50.4027 51.1667v-8.5208h-2.6963v-3.7549h2.6963v-4.4525h4.3327v4.4612h3.3115v3.7549h-3.3115v7.3654c0 1.011.5401 1.7908 1.486 1.7908.6427 0 1.2507-.2368 1.4876-.4722l.9113 3.2437c-.6413.5777-1.7908 1.047-3.5817 1.047-3.0068-.0029-4.6359-1.5568-4.6359-4.4626z" transform="matrix(1 0 0 1.01243 979.012 281)"/><path d="m59.533 33.9388c-.0048-1.4189 1.1416-2.5731 2.5606-2.5779 1.4189-.0048 2.5731 1.1416 2.5779 2.5606.0047 1.4189-1.1417 2.5731-2.5606 2.5779-.0033 0-.0068 0-.0101 0-1.4108-.011-2.5529-1.1499-2.5678-2.5606zm.4333 4.9681h4.3008v16.3195h-4.2936z" transform="matrix(1 0 0 1.01243 979.012 281)"/><path d="m68.4553 42.6502h-2.7036v-3.7549h2.7036v-.8795c0-3.5484 2.2977-5.6772 5.5082-5.6772 1.216 0 2.3309.2701 3.1094.6759l-.8795 3.0415c-.4218-.2381-.9011-.355-1.3851-.3379-1.2174 0-2.0218.8116-2.0218 2.3656v.8116h3.3115v3.7549h-3.3101v12.5646h-4.3326z" transform="matrix(1 0 0 1.01243 979.012 281)"/><path d="m80.3166 58.0267c1.1149 0 1.8586-.3047 2.2645-1.1828l.6051-1.3864-6.6203-16.5578h4.5984l4.2546 11.3586 4.2662-11.3586h4.6215l-7.6702 18.9912c-1.2175 3.0748-3.3794 3.8864-6.1841 3.9543-.7153-.0143-1.4279-.0936-2.1288-.2369l.6413-3.8531c.4296.1742.8882.2662 1.3518.2715z" transform="matrix(1 0 0 1.01243 979.012 281)"/><path d="m22.5166 12.2757c.0024 5.6535-4.5787 10.2384-10.2322 10.2409-.0029 0-.0058 0-.0087 0h-12.2757v-10.2409zm-10.2409-2.0406c5.6527.0032 10.2377-4.57665 10.2409-10.22932116 0-.00192615 0-.0038523 0-.00577844l-22.5166-.0000004v10.2351z" fill="#f42147" transform="matrix(1 0 0 1.01243 979.012 281)"/></g></svg>