<svg width="32" height="32" viewBox="0 0 32 32" fill="none" xmlns="http://www.w3.org/2000/svg">
<g clip-path="url(#clip0_3361_185)">
<path d="M7.42091 19.0344C7.42091 18.1486 10.7818 17.6516 12.3468 17.5308L12.4965 17.6173C11.8953 17.7268 9.48297 18.1521 9.48297 18.7072C9.48297 19.3113 13.1829 19.7072 15.3302 19.7072C18.9775 19.7072 21.4568 19.1551 22.1236 18.9735L23.0567 19.5161C22.4177 19.8291 19.6751 20.6486 15.3302 20.6486C10.5019 20.6486 7.42091 19.7042 7.42091 19.0344ZM14.7799 31.4721C12.8687 31.4886 10.5356 31.3306 8.57291 31.0011L8.39066 31.1052C10.3462 31.6786 13.0687 32.0247 16.0598 31.9987C21.9342 31.9478 26.6969 30.491 26.791 28.7378L26.7235 28.6982C26.3295 29.1786 23.7887 31.3934 14.7799 31.4721ZM15.2799 30.3431C20.0881 30.3011 25.4673 29.3603 25.4537 27.7787C25.4508 27.4917 25.2643 27.2953 25.1022 27.1769L25.0229 27.2225C24.5785 28.4473 20.8224 29.3526 15.2722 29.4006C11.6912 29.4319 6.73028 28.5739 6.72141 27.5828C6.7131 26.5888 9.07166 26.0426 9.07166 26.0426L8.90478 25.9474C7.32435 26.1651 4.41197 26.9219 4.42141 28.0148C4.43516 29.5946 11.1285 30.3792 15.2799 30.3431ZM26.1117 19.4575C26.0147 21.3125 24.3011 22.4675 22.5881 23.4433L22.7432 23.5332C24.571 23.0184 27.8324 21.5214 27.5626 19.2196C27.4283 18.0723 26.3792 17.2522 25.0117 17.2522C24.5857 17.2522 24.207 17.3273 23.8999 17.4208L23.8987 17.4238L23.8336 17.5871C25.0573 17.3474 26.175 18.2409 26.1117 19.4575ZM11.9883 24.9692C11.4303 25.0804 10.2143 25.3598 10.2143 25.9508C10.2143 26.7698 12.8155 27.3976 15.3273 27.3976C18.7835 27.3976 20.1994 26.5083 20.2633 26.4621L18.826 25.6307C18.2148 25.7763 17.1852 26.0046 15.3308 26.0046C13.2617 26.0046 11.9132 25.6508 11.9132 25.2626C11.9132 25.1804 11.9647 25.0822 12.0605 25.0112L11.9883 24.9692ZM20.4787 22.2083C19.684 22.4332 17.8935 22.8 15.3332 22.8C12.8208 22.8 10.7682 22.3704 10.7616 21.8639C10.7568 21.5266 11.1645 21.3799 11.1645 21.3799L11.0923 21.3379C9.88885 21.5504 8.77166 21.8794 8.7776 22.3716C8.78885 23.2645 12.2042 23.9349 15.3284 23.9349C17.9846 23.9349 20.5354 23.4894 21.6863 22.9054L20.4787 22.2083Z" fill="#427595"/>
<path d="M19.7935 2.28875C19.7935 7.21237 13.0462 9.09631 13.0462 12.5969C13.0462 15.0543 14.6758 16.5951 15.5775 17.5696L15.5042 17.6122C14.3657 16.8998 11.3711 15.1104 11.3711 12.1549C11.3711 8.00525 19.1213 6.02244 19.1213 1.3095C19.1213 0.729625 19.0355 0.284688 18.9752 0.045L19.0533 0C19.2988 0.308313 19.7935 1.07987 19.7935 2.28875ZM22.0124 6.649L21.9313 6.60288C20.4633 7.09456 15.9427 8.87913 15.9427 12.2058C15.9427 14.0868 17.7799 15.1294 17.7799 16.8932C17.7799 17.5228 17.4243 18.1128 17.1355 18.4654L17.2805 18.5494C18.0455 18.0524 19.3993 16.9761 19.3993 15.5868C19.3993 14.4099 17.771 12.9957 17.771 11.4832C17.771 9.09987 20.913 7.23006 22.0124 6.649Z" fill="#DE8E2F"/>
</g>
<defs>
<clipPath id="clip0_3361_185">
<rect width="32" height="32" fill="white"/>
</clipPath>
</defs>
</svg>
