<svg width="32" height="32" viewBox="0 0 32 32" fill="none" xmlns="http://www.w3.org/2000/svg">
<path d="M16.0001 32C15.8831 32 15.7681 31.9692 15.6667 31.9107L11.6441 29.5826C11.4922 29.4936 11.3817 29.3481 11.3367 29.1779C11.2917 29.0077 11.3159 28.8266 11.4039 28.6742C11.4919 28.5217 11.6367 28.4103 11.8066 28.3641C11.9765 28.318 12.1577 28.341 12.3107 28.428L16.0001 30.5613L28.0001 23.6147V8.38532L16.0001 1.43865L4.00008 8.38532V23.6173L5.08008 24.2426C6.13368 24.9692 7.38704 25.3503 8.66675 25.3333C9.32275 25.3333 10.0001 25.3333 10.0001 22.6666V9.99998C10.0001 9.82317 10.0703 9.6536 10.1953 9.52858C10.3204 9.40355 10.4899 9.33332 10.6667 9.33332C10.8436 9.33332 11.0131 9.40355 11.1382 9.52858C11.2632 9.6536 11.3334 9.82317 11.3334 9.99998V22.6666C11.3334 24.7453 11.0107 26.6666 8.66675 26.6666C7.14851 26.6777 5.66198 26.2323 4.40008 25.388L3.00008 24.5773C2.89874 24.5188 2.81458 24.4346 2.75607 24.3333C2.69756 24.232 2.66675 24.117 2.66675 24V7.99998C2.66675 7.88296 2.69756 7.768 2.75607 7.66666C2.81458 7.56532 2.89874 7.48116 3.00008 7.42265L15.6667 0.0893164C15.7681 0.0308042 15.8831 0 16.0001 0C16.1171 0 16.2321 0.0308042 16.3334 0.0893164L29.0001 7.42265C29.1014 7.48116 29.1856 7.56532 29.2441 7.66666C29.3026 7.768 29.3334 7.88296 29.3334 7.99998V24C29.3334 24.117 29.3026 24.232 29.2441 24.3333C29.1856 24.4346 29.1014 24.5188 29.0001 24.5773L16.3334 31.9107C16.2321 31.9692 16.1171 32 16.0001 32Z" fill="#388E3C"/>
<path d="M18.6668 22.6666C15.7255 22.6666 13.3335 20.8719 13.3335 18.6666C13.3335 18.4898 13.4037 18.3202 13.5288 18.1952C13.6538 18.0702 13.8234 17.9999 14.0002 17.9999C14.177 17.9999 14.3465 18.0702 14.4716 18.1952C14.5966 18.3202 14.6668 18.4898 14.6668 18.6666C14.6668 20.1119 16.4988 21.3333 18.6668 21.3333C20.8348 21.3333 22.6668 20.1119 22.6668 18.6666C22.6668 17.7199 21.0242 16.6666 18.6668 16.6666C15.6762 16.6666 13.3335 15.2026 13.3335 13.3333C13.3335 11.1279 15.7255 9.33325 18.6668 9.33325C21.6082 9.33325 24.0002 11.1279 24.0002 13.3333C24.0002 13.5101 23.9299 13.6796 23.8049 13.8047C23.6799 13.9297 23.5103 13.9999 23.3335 13.9999C23.1567 13.9999 22.9871 13.9297 22.8621 13.8047C22.7371 13.6796 22.6668 13.5101 22.6668 13.3333C22.6668 11.8879 20.8348 10.6666 18.6668 10.6666C16.4988 10.6666 14.6668 11.8879 14.6668 13.3333C14.6668 14.2799 16.3095 15.3333 18.6668 15.3333C21.6575 15.3333 24.0002 16.7973 24.0002 18.6666C24.0002 20.8719 21.6082 22.6666 18.6668 22.6666Z" fill="#388E3C"/>
<path d="M16.0001 32C15.8831 32 15.7681 31.9692 15.6667 31.9107L11.6441 29.5826C11.4922 29.4936 11.3817 29.3481 11.3367 29.1779C11.2917 29.0077 11.3159 28.8266 11.4039 28.6742C11.4919 28.5217 11.6367 28.4103 11.8066 28.3641C11.9765 28.318 12.1577 28.341 12.3107 28.428L16.0001 30.5613L28.0001 23.6147V8.38532L16.0001 1.43865L4.00008 8.38532V23.6173L5.08008 24.2426C6.13368 24.9692 7.38704 25.3503 8.66675 25.3333C9.32275 25.3333 10.0001 25.3333 10.0001 22.6666V9.99998C10.0001 9.82317 10.0703 9.6536 10.1953 9.52858C10.3204 9.40355 10.4899 9.33332 10.6667 9.33332C10.8436 9.33332 11.0131 9.40355 11.1382 9.52858C11.2632 9.6536 11.3334 9.82317 11.3334 9.99998V22.6666C11.3334 24.7453 11.0107 26.6666 8.66675 26.6666C7.14851 26.6777 5.66198 26.2323 4.40008 25.388L3.00008 24.5773C2.89874 24.5188 2.81458 24.4346 2.75607 24.3333C2.69756 24.232 2.66675 24.117 2.66675 24V7.99998C2.66675 7.88296 2.69756 7.768 2.75607 7.66666C2.81458 7.56532 2.89874 7.48116 3.00008 7.42265L15.6667 0.0893164C15.7681 0.0308042 15.8831 0 16.0001 0C16.1171 0 16.2321 0.0308042 16.3334 0.0893164L29.0001 7.42265C29.1014 7.48116 29.1856 7.56532 29.2441 7.66666C29.3026 7.768 29.3334 7.88296 29.3334 7.99998V24C29.3334 24.117 29.3026 24.232 29.2441 24.3333C29.1856 24.4346 29.1014 24.5188 29.0001 24.5773L16.3334 31.9107C16.2321 31.9692 16.1171 32 16.0001 32Z" fill="url(#paint0_linear_3361_197)"/>
<path d="M18.6668 22.6666C15.7255 22.6666 13.3335 20.8719 13.3335 18.6666C13.3335 18.4898 13.4037 18.3202 13.5288 18.1952C13.6538 18.0702 13.8234 17.9999 14.0002 17.9999C14.177 17.9999 14.3465 18.0702 14.4716 18.1952C14.5966 18.3202 14.6668 18.4898 14.6668 18.6666C14.6668 20.1119 16.4988 21.3333 18.6668 21.3333C20.8348 21.3333 22.6668 20.1119 22.6668 18.6666C22.6668 17.7199 21.0242 16.6666 18.6668 16.6666C15.6762 16.6666 13.3335 15.2026 13.3335 13.3333C13.3335 11.1279 15.7255 9.33325 18.6668 9.33325C21.6082 9.33325 24.0002 11.1279 24.0002 13.3333C24.0002 13.5101 23.9299 13.6796 23.8049 13.8047C23.6799 13.9297 23.5103 13.9999 23.3335 13.9999C23.1567 13.9999 22.9871 13.9297 22.8621 13.8047C22.7371 13.6796 22.6668 13.5101 22.6668 13.3333C22.6668 11.8879 20.8348 10.6666 18.6668 10.6666C16.4988 10.6666 14.6668 11.8879 14.6668 13.3333C14.6668 14.2799 16.3095 15.3333 18.6668 15.3333C21.6575 15.3333 24.0002 16.7973 24.0002 18.6666C24.0002 20.8719 21.6082 22.6666 18.6668 22.6666Z" fill="url(#paint1_linear_3361_197)"/>
<defs>
<linearGradient id="paint0_linear_3361_197" x1="1.92675" y1="9.43732" x2="30.0734" y2="22.5627" gradientUnits="userSpaceOnUse">
<stop stop-color="white" stop-opacity="0.2"/>
<stop offset="1" stop-color="white" stop-opacity="0"/>
</linearGradient>
<linearGradient id="paint1_linear_3361_197" x1="1.92683" y1="9.43725" x2="30.0735" y2="22.5626" gradientUnits="userSpaceOnUse">
<stop stop-color="white" stop-opacity="0.2"/>
<stop offset="1" stop-color="white" stop-opacity="0"/>
</linearGradient>
</defs>
</svg>
