<svg width="32" height="32" viewBox="0 0 32 32" fill="none" xmlns="http://www.w3.org/2000/svg">
<g clip-path="url(#clip0_3361_191)">
<path d="M15.8116 0.000261574C14.5065 0.00632407 13.2602 0.117637 12.1635 0.311699C8.93297 0.882449 8.34641 2.07701 8.34641 4.28007V7.18964H15.9806V8.15945H5.48134C3.26266 8.15945 1.31984 9.49301 0.712219 12.0299C0.0112818 14.9378 -0.0197806 16.7524 0.712219 19.7888C1.25491 22.0488 2.55084 23.6592 4.76953 23.6592H7.39434V20.1713C7.39434 17.6514 9.57453 15.4288 12.1635 15.4288H19.7888C21.9115 15.4288 23.6059 13.6811 23.6059 11.5494V4.28007C23.6059 2.2112 21.8605 0.657012 19.7888 0.311699C18.4774 0.0933866 17.1167 -0.00580093 15.8116 0.000261574ZM11.683 2.34039C12.4716 2.34039 13.1155 2.99489 13.1155 3.79957C13.1155 4.60145 12.4716 5.24989 11.683 5.24989C10.8917 5.24989 10.2505 4.60145 10.2505 3.79957C10.2505 2.99482 10.8917 2.34039 11.683 2.34039Z" fill="url(#paint0_linear_3361_191)"/>
<path d="M24.558 8.15955V11.5495C24.558 14.1778 22.3297 16.3899 19.7889 16.3899H12.1636C10.0749 16.3899 8.34644 18.1775 8.34644 20.2692V27.5386C8.34644 29.6075 10.1455 30.8244 12.1636 31.418C14.5801 32.1285 16.8975 32.257 19.7889 31.418C21.7108 30.8615 23.6059 29.7417 23.6059 27.5386V24.629H15.9806V23.6592H27.4231C29.6417 23.6592 30.4686 22.1116 31.2402 19.7887C32.0372 17.3974 32.0033 15.0977 31.2402 12.0299C30.6919 9.82117 29.6446 8.15942 27.4231 8.15942H24.558V8.15955ZM20.2694 26.5688C21.0607 26.5688 21.7019 27.2172 21.7019 28.0191C21.7019 28.8239 21.0607 29.4784 20.2694 29.4784C19.4808 29.4784 18.8369 28.8239 18.8369 28.0191C18.8368 27.2172 19.4807 26.5688 20.2694 26.5688Z" fill="url(#paint1_linear_3361_191)"/>
</g>
<defs>
<linearGradient id="paint0_linear_3361_191" x1="-0.573411" y1="0.910037" x2="17.0342" y2="15.9256" gradientUnits="userSpaceOnUse">
<stop stop-color="#5A9FD4"/>
<stop offset="1" stop-color="#306998"/>
</linearGradient>
<linearGradient id="paint1_linear_3361_191" x1="23.6591" y1="25.2596" x2="17.3448" y2="16.4047" gradientUnits="userSpaceOnUse">
<stop stop-color="#FFD43B"/>
<stop offset="1" stop-color="#FFE873"/>
</linearGradient>
<clipPath id="clip0_3361_191">
<rect width="32" height="32" fill="white"/>
</clipPath>
</defs>
</svg>
