<svg width="31" height="32" viewBox="0 0 31 32" fill="none" xmlns="http://www.w3.org/2000/svg">
<g clip-path="url(#clip0_3361_209)">
<path d="M28.1554 2.2254C27.7103 3.30742 27.1348 4.26665 26.4978 5.12612C23.6892 2.26377 19.7602 0.445068 15.4245 0.445068C6.90648 0.445068 -0.0537109 7.36689 -0.0537109 15.9156C-0.0537109 20.3818 1.85708 24.4029 4.88826 27.2422L5.46379 27.7563C8.14197 30.0201 11.6259 31.3938 15.4168 31.3938C23.5511 31.3938 30.2504 25.0475 30.8259 17.036C31.2863 13.1453 30.1046 8.16497 28.1554 2.2254ZM7.12902 27.3726C6.68394 27.9482 5.85516 28.0096 5.27962 27.5645C4.70408 27.1194 4.64269 26.2906 5.08778 25.7151C5.53286 25.1396 6.36164 25.0782 6.93718 25.5232C7.48202 25.9683 7.57411 26.7971 7.12902 27.3726ZM28.0633 22.7453C24.2648 27.8177 16.0998 26.0988 10.8969 26.352C10.8969 26.352 9.96835 26.4134 9.04749 26.5439C9.04749 26.5439 9.40049 26.3827 9.84557 26.2216C13.5137 24.9477 15.2403 24.6868 17.4734 23.5434C21.6556 21.4024 25.8302 16.7137 26.6667 11.8638C25.0705 16.5218 20.2206 20.5429 15.8158 22.1698C12.7847 23.2902 7.32854 24.3722 7.32854 24.3722L7.106 24.2417C3.4072 22.423 3.27674 14.3808 10.0451 11.7947C13.0149 10.6436 15.8235 11.2806 19.0465 10.5208C22.4614 9.72277 26.4211 7.16737 28.0096 3.82157C29.7823 9.21629 31.954 17.5731 28.0633 22.7453Z" fill="#5ECA61"/>
<path d="M7.12912 27.3726C6.68403 27.9481 5.85526 28.0095 5.27972 27.5644C4.70418 27.1193 4.64279 26.2906 5.08787 25.715C5.53295 25.1395 6.36173 25.0781 6.93727 25.5232C7.48211 25.9683 7.5742 26.797 7.12912 27.3726Z" fill="black"/>
<path d="M28.0633 22.7453C24.2647 27.8177 16.0997 26.0988 10.8968 26.352C10.8968 26.352 9.96829 26.4134 9.04743 26.5438C9.04743 26.5438 9.40043 26.3827 9.84551 26.2215C13.5136 24.9477 15.2402 24.6868 17.4733 23.5434C21.6556 21.4023 25.8302 16.7136 26.6666 11.8637C25.0704 16.5218 20.2206 20.5429 15.8158 22.1697C12.7846 23.2901 7.32848 24.3721 7.32848 24.3721L7.10594 24.2417C3.40714 22.423 3.27668 14.3808 10.045 11.7947C13.0148 10.6436 15.8234 11.2805 19.0465 10.5208C22.4613 9.72273 26.421 7.16734 28.0095 3.82153C29.7822 9.21626 31.9539 17.5731 28.0633 22.7453Z" fill="white"/>
</g>
<defs>
<clipPath id="clip0_3361_209">
<rect width="30.9257" height="32" fill="white"/>
</clipPath>
</defs>
</svg>
