<svg width="32" height="32" viewBox="0 0 32 32" fill="none" xmlns="http://www.w3.org/2000/svg">
<g clip-path="url(#clip0_3361_127)">
<path fill-rule="evenodd" clip-rule="evenodd" d="M1.21364 0H31.15C31.8203 0 32.3637 0.537258 32.3637 1.2V30.8C32.3637 31.4628 31.8203 32 31.15 32H1.21364C0.543364 32 0 31.4628 0 30.8V1.2C0 0.537258 0.543364 0 1.21364 0ZM17.9908 17.0245V14.4H6.47273V17.0245H10.5849V28.7102H13.8585V17.0245H17.9908ZM19.2959 28.4016C19.8238 28.6677 20.4481 28.8673 21.1689 29.0004C21.8897 29.1334 22.6494 29.2 23.448 29.2C24.2263 29.2 24.9657 29.1268 25.6662 28.9804C26.3666 28.8341 26.9808 28.5929 27.5087 28.2569C28.0366 27.9209 28.4545 27.4818 28.7625 26.9396C29.0704 26.3973 29.2244 25.727 29.2244 24.9286C29.2244 24.3498 29.1364 23.8426 28.9604 23.4068C28.7845 22.971 28.5307 22.5834 28.199 22.2441C27.8674 21.9047 27.4698 21.6004 27.0062 21.331C26.5425 21.0615 26.0198 20.807 25.4378 20.5675C25.0113 20.3945 24.6289 20.2265 24.2906 20.0635C23.9521 19.9006 23.6645 19.7342 23.4277 19.5646C23.1908 19.3948 23.0081 19.2153 22.8795 19.0256C22.7509 18.8361 22.6866 18.6214 22.6866 18.3819C22.6866 18.1623 22.7441 17.9644 22.8592 17.7882C22.9743 17.6118 23.1366 17.4604 23.3465 17.334C23.5563 17.2076 23.8134 17.1095 24.118 17.0396C24.4225 16.9698 24.761 16.9349 25.1332 16.9349C25.4039 16.9349 25.6898 16.9548 25.991 16.9947C26.2922 17.0347 26.5951 17.0962 26.8996 17.1793C27.2042 17.2625 27.5003 17.3673 27.7879 17.4938C28.0756 17.6202 28.3412 17.7665 28.5849 17.9328V14.9489C28.0907 14.7626 27.551 14.6245 26.9655 14.5348C26.3802 14.4449 25.7084 14.4 24.9504 14.4C24.179 14.4 23.448 14.4815 22.7577 14.6446C22.0673 14.8075 21.4599 15.062 20.9354 15.408C20.4108 15.754 19.9963 16.1947 19.6918 16.7302C19.3872 17.2658 19.235 17.9062 19.235 18.6513C19.235 19.6028 19.5141 20.4145 20.0725 21.0864C20.6309 21.7584 21.4785 22.3273 22.6155 22.793C23.0623 22.9727 23.4784 23.1489 23.8642 23.322C24.25 23.4949 24.5833 23.6746 24.8641 23.8608C25.145 24.0471 25.3666 24.25 25.5291 24.4695C25.6916 24.6891 25.7728 24.9386 25.7728 25.2181C25.7728 25.4244 25.722 25.6156 25.6204 25.7919C25.5189 25.9682 25.3649 26.1212 25.1585 26.251C24.9521 26.3807 24.695 26.4822 24.3871 26.5553C24.0791 26.6286 23.7186 26.6651 23.3058 26.6651C22.602 26.6651 21.9049 26.5438 21.2145 26.3009C20.5243 26.0581 19.8847 25.6938 19.2959 25.2081V28.4016Z" fill="white"/>
</g>
<defs>
<clipPath id="clip0_3361_127">
<rect width="32" height="32" fill="white"/>
</clipPath>
</defs>
</svg>
